HIERARCHY
ROOT Hips
{
	OFFSET 0.000000 0.000000 0.000000
	CHANNELS 6 Xposition Yposition Zposition Zrotation Yrotation Xrotation 
	JOINT LowerBack
	{
		OFFSET 0.000000 0.000000 0.000000
		CHANNELS 3 Zrotation Yrotation Xrotation
		JOINT Spine
		{
			OFFSET 0.028270 2.035590 -0.193380
			CHANNELS 3 Zrotation Yrotation Xrotation
			JOINT Spine1
			{
				OFFSET 0.056720 2.048850 -0.042750
				CHANNELS 3 Zrotation Yrotation Xrotation
				JOINT Neck
				{
					OFFSET 0.000000 0.000000 0.000000
					CHANNELS 3 Zrotation Yrotation Xrotation
					JOINT Neck1
					{
						OFFSET -0.054170 1.746240 0.172020
						CHANNELS 3 Zrotation Yrotation Xrotation
						JOINT Head
						{
							OFFSET 0.104070 1.761360 -0.123970
							CHANNELS 3 Zrotation Yrotation Xrotation
							End Site
							{
								OFFSET 0.000000 0.000000 0.000000
							}
						}
					}
				}
				JOINT LeftShoulder
				{
					OFFSET 0.000000 0.000000 0.000000
					CHANNELS 3 Zrotation Yrotation Xrotation
					JOINT LeftArm
					{
						OFFSET 3.362410 1.200890 -0.311210
						CHANNELS 3 Zrotation Yrotation Xrotation
						JOINT LeftForeArm
						{
							OFFSET 4.983000 -0.000000 -0.000000
							CHANNELS 3 Zrotation Yrotation Xrotation
							JOINT LeftHand
							{
								OFFSET 3.483560 -0.000000 -0.000000
								CHANNELS 3 Zrotation Yrotation Xrotation
								JOINT LeftFingerBase
								{
									OFFSET 0.000000 0.000000 0.000000
									CHANNELS 3 Zrotation Yrotation Xrotation
									JOINT LeftHandIndex1
									{
										OFFSET 0.715260 -0.000000 -0.000000
										CHANNELS 3 Zrotation Yrotation Xrotation
										End Site
										{
											OFFSET 0.000000 0.000000 0.000000
										}
									}
								}
								JOINT LThumb
								{
									OFFSET 0.000000 0.000000 0.000000
									CHANNELS 3 Zrotation Yrotation Xrotation
									End Site
									{
										OFFSET 0.000000 0.000000 0.000000
									}
								}
							}
						}
					}
				}
				JOINT RightShoulder
				{
					OFFSET 0.000000 0.000000 0.000000
					CHANNELS 3 Zrotation Yrotation Xrotation
					JOINT RightArm
					{
						OFFSET -3.136600 1.374050 -0.404650
						CHANNELS 3 Zrotation Yrotation Xrotation
						JOINT RightForeArm
						{
							OFFSET -5.241900 -0.000000 -0.000000
							CHANNELS 3 Zrotation Yrotation Xrotation
							JOINT RightHand
							{
								OFFSET -3.444170 -0.000000 -0.000000
								CHANNELS 3 Zrotation Yrotation Xrotation
								JOINT RightFingerBase
								{
									OFFSET 0.000000 0.000000 0.000000
									CHANNELS 3 Zrotation Yrotation Xrotation
									JOINT RightHandIndex1
									{
										OFFSET -0.622530 -0.000000 -0.000000
										CHANNELS 3 Zrotation Yrotation Xrotation
										End Site
										{
											OFFSET 0.000000 0.000000 0.000000
										}
									}
								}
								JOINT RThumb
								{
									OFFSET 0.000000 0.000000 0.000000
									CHANNELS 3 Zrotation Yrotation Xrotation
									End Site
									{
										OFFSET 0.000000 0.000000 0.000000
									}
								}
							}
						}
					}
				}
			}
		}
	}
}
}
MOTION
Frames: 18
Frame Time: 0.008333
-10.704016 17.001853 -2.637872 5.407430 84.167547 7.300906 -2.874666 0.664081 -2.089516 -1.026125 0.790139 -2.631395 -4.714837 0.731484 3.009413 9.845922 -11.856669 -9.974134 -1.481858 -0.085230 -0.602604 0.000000 0.000000 0.000000 -5.484929 27.187245 1.000016 -81.657771 32.593972 5.065312 -3.793953 -25.431974 -0.026948 -9.612201 5.672908 -0.489616 -0.014814 -0.147272 -0.000000 0.000000 0.000000 0.000000 0.000000 0.000000 0.000000 10.984054 -6.924885 0.947494 35.413510 16.344885 7.207582 2.174258 39.499693 0.013143 3.630153 5.748846 0.184479 0.044242 -0.123213 0.000000 0.000000 0.000000 0.000000 0.000000 0.000000 0.000000 
-10.499340 16.988608 -2.632885 8.954575 84.276083 10.664305 -3.323246 0.429152 -1.938299 -1.106526 0.590642 -2.621997 -4.738681 0.530937 2.938716 9.994459 -11.998343 -9.955345 -1.516360 -0.088154 -0.597149 0.000000 0.000000 0.000000 -5.173601 26.686794 0.986358 -81.207857 32.380533 6.083191 -3.777860 -26.094763 -0.027174 -9.767998 5.621770 -0.493220 -0.014110 -0.146715 -0.000000 0.000000 0.000000 0.000000 0.000000 0.000000 0.000000 11.265512 -7.150404 0.917888 36.164516 15.819357 7.501417 2.214807 39.625575 0.013215 3.680171 5.711667 0.185591 0.046660 -0.118983 0.000000 0.000000 0.000000 0.000000 0.000000 0.000000 0.000000 
-10.297113 16.974559 -2.626591 12.454118 84.427225 14.040993 -3.733036 0.180808 -1.814210 -1.179515 0.373288 -2.616786 -4.765442 0.312330 2.869758 10.137522 -12.161930 -9.943357 -1.555219 -0.091402 -0.593121 0.000000 0.000000 0.000000 -4.866994 26.163339 0.969254 -80.644153 32.067443 7.135508 -3.761187 -26.758693 -0.027355 -9.913019 5.561106 -0.495220 -0.013827 -0.145881 -0.000000 0.000000 0.000000 0.000000 0.000000 0.000000 0.000000 11.559229 -7.399373 0.885812 36.969721 15.233241 7.807153 2.258051 39.764776 0.013304 3.730083 5.686153 0.187103 0.049272 -0.114688 0.000000 0.000000 0.000000 0.000000 0.000000 0.000000 0.000000 
-10.097303 16.960336 -2.619864 15.680741 84.577496 17.201792 -4.076875 -0.065619 -1.717245 -1.241085 0.151849 -2.615109 -4.797150 0.089730 2.805601 10.274287 -12.350654 -9.940022 -1.598238 -0.094935 -0.591049 0.000000 0.000000 0.000000 -4.582660 25.638736 0.946186 -79.969232 31.640397 8.190158 -3.742951 -27.398617 -0.027427 -10.025261 5.479396 -0.493617 -0.014053 -0.144690 -0.000000 0.000000 0.000000 0.000000 0.000000 0.000000 0.000000 11.865607 -7.668806 0.853221 37.813138 14.605202 8.124127 2.304673 39.894527 0.013413 3.776700 5.674443 0.188817 0.052093 -0.110387 0.000000 0.000000 0.000000 0.000000 0.000000 0.000000 0.000000 
-9.899802 16.946514 -2.613486 18.396938 84.689175 19.900730 -4.338587 -0.297307 -1.645721 -1.288905 -0.061595 -2.616488 -4.834884 -0.124595 2.748162 10.402962 -12.555601 -9.944614 -1.645338 -0.098747 -0.590798 0.000000 0.000000 0.000000 -4.333850 25.132591 0.916803 -79.193545 31.088487 9.202868 -3.723376 -27.988791 -0.027341 -10.086262 5.372499 -0.487008 -0.014923 -0.143082 -0.000000 0.000000 0.000000 0.000000 0.000000 0.000000 0.000000 12.180647 -7.944237 0.820991 38.687052 13.940473 8.440613 2.355476 39.991528 0.013541 3.818609 5.676601 0.190733 0.055110 -0.106118 0.000000 0.000000 0.000000 0.000000 0.000000 0.000000 0.000000 
-9.704542 16.933669 -2.608122 20.395320 84.733253 21.919466 -4.512007 -0.504304 -1.597420 -1.322138 -0.257198 -2.621179 -4.878917 -0.320770 2.696664 10.518819 -12.751588 -9.952202 -1.696453 -0.102893 -0.591110 0.000000 0.000000 0.000000 -4.127779 24.657214 0.883148 -78.333535 30.408190 10.131977 -3.703439 -28.504988 -0.027057 -10.079979 5.237762 -0.474493 -0.016592 -0.141007 -0.000000 0.000000 0.000000 0.000000 0.000000 0.000000 0.000000 12.490957 -8.195289 0.788459 39.602078 13.217057 8.715740 2.411679 40.039068 0.013691 3.864597 5.685311 0.193050 0.058206 -0.101894 0.000000 0.000000 0.000000 0.000000 0.000000 0.000000 0.000000 
-9.511400 16.922347 -2.604133 21.561023 84.692288 23.131689 -4.600571 -0.681604 -1.567764 -1.341441 -0.429402 -2.627727 -4.928981 -0.493083 2.654377 10.624750 -12.946063 -9.964041 -1.751007 -0.107287 -0.592439 0.000000 0.000000 0.000000 -3.968541 24.224066 0.845080 -77.406060 29.595438 10.936638 -3.684793 -28.928390 -0.026569 -9.998025 5.079970 -0.456470 -0.019175 -0.138483 -0.000000 0.000000 0.000000 0.000000 0.000000 0.000000 0.000000 12.801305 -8.430045 0.756097 40.546925 12.470394 8.959472 2.473614 39.999841 0.013849 3.896921 5.701570 0.194968 0.061541 -0.097723 0.000000 0.000000 0.000000 0.000000 0.000000 0.000000 0.000000 
-9.320317 16.912949 -2.601607 21.889676 84.560607 23.521086 -4.610077 -0.827875 -1.551190 -1.347668 -0.576212 -2.635530 -4.984264 -0.639511 2.620397 10.718424 -13.125035 -9.975857 -1.808430 -0.111928 -0.593746 0.000000 0.000000 0.000000 -3.852755 23.832880 0.805103 -76.430522 28.657868 11.583091 -3.669568 -29.246105 -0.025883 -9.836502 4.904799 -0.433540 -0.022778 -0.135535 -0.000000 0.000000 0.000000 0.000000 0.000000 0.000000 0.000000 13.102216 -8.635244 0.722496 41.534449 11.693390 9.141374 2.542069 39.852008 0.014006 3.914468 5.717193 0.196087 0.065097 -0.093587 0.000000 0.000000 0.000000 0.000000 0.000000 0.000000 0.000000 
-9.131197 16.905786 -2.600392 21.492635 84.342851 23.187495 -4.548685 -0.945662 -1.540133 -1.342043 -0.699334 -2.642921 -5.043735 -0.761625 2.595586 10.800977 -13.292359 -9.986684 -1.867742 -0.116730 -0.594899 0.000000 0.000000 0.000000 -3.773655 23.480950 0.764471 -75.423343 27.603936 12.046738 -3.659919 -29.451667 -0.025024 -9.598743 4.721588 -0.407103 -0.027437 -0.132222 -0.000000 0.000000 0.000000 0.000000 0.000000 0.000000 0.000000 13.392537 -8.819034 0.686569 42.568926 10.905506 9.255609 2.617162 39.568492 0.014147 3.903541 5.727300 0.195506 0.068979 -0.089467 0.000000 0.000000 0.000000 0.000000 0.000000 0.000000 0.000000 
-8.944007 16.900961 -2.600101 20.560433 84.052755 22.310746 -4.425028 -1.039485 -1.527317 -1.325977 -0.802495 -2.649799 -5.106697 -0.863174 2.574912 10.867016 -13.421010 -9.987948 -1.928740 -0.121787 -0.593686 0.000000 0.000000 0.000000 -3.716895 23.152118 0.727378 -74.401467 26.457584 12.307607 -3.658106 -29.547138 -0.024030 -9.292358 4.538790 -0.378558 -0.033166 -0.128595 -0.000000 0.000000 0.000000 0.000000 0.000000 0.000000 0.000000 13.655642 -8.956625 0.645635 43.678803 10.064671 9.241046 2.699222 39.148438 0.014254 3.874777 5.718305 0.193424 0.073020 -0.085351 0.000000 0.000000 0.000000 0.000000 0.000000 0.000000 0.000000 
-8.758679 16.898527 -2.600156 19.313399 83.710227 21.103091 -4.250518 -1.116389 -1.505208 -1.301302 -0.891740 -2.654456 -5.172052 -0.950085 2.558444 10.917901 -13.521210 -9.979484 -1.990391 -0.126999 -0.590149 0.000000 0.000000 0.000000 -3.670161 22.835836 0.694608 -73.373145 25.235831 12.360584 -3.665566 -29.541557 -0.022947 -8.930057 4.366541 -0.349707 -0.039882 -0.124719 -0.000000 0.000000 0.000000 0.000000 0.000000 0.000000 0.000000 13.892503 -9.064863 0.598819 44.866889 9.189127 9.091320 2.787564 38.577468 0.014312 3.815840 5.687197 0.189141 0.077283 -0.081251 0.000000 0.000000 0.000000 0.000000 0.000000 0.000000 0.000000 
-8.575188 16.898379 -2.599942 17.951691 83.338722 19.758851 -4.038049 -1.184038 -1.467639 -1.270134 -0.973693 -2.655380 -5.238817 -1.028900 2.546335 10.955735 -13.605295 -9.962148 -2.051782 -0.132268 -0.584570 0.000000 0.000000 0.000000 -3.620176 22.521701 0.666693 -72.342558 23.956552 12.209994 -3.683055 -29.450113 -0.021822 -8.526810 4.213796 -0.321751 -0.047457 -0.120640 -0.000000 0.000000 0.000000 0.000000 0.000000 0.000000 0.000000 14.106326 -9.162607 0.545500 46.133176 8.293881 8.801758 2.880934 37.852812 0.014313 3.717239 5.633142 0.182057 0.081774 -0.077201 0.000000 0.000000 0.000000 0.000000 0.000000 0.000000 0.000000 
-8.393439 16.900295 -2.598806 16.626302 82.963040 18.426115 -3.800759 -1.249538 -1.411394 -1.234659 -1.054525 -2.652270 -5.306257 -1.105845 2.536419 10.980008 -13.672550 -9.934349 -2.112495 -0.137575 -0.576520 0.000000 0.000000 0.000000 -3.553665 22.196178 0.645101 -71.310654 22.642722 11.865184 -3.710747 -29.294458 -0.020700 -8.098067 4.085752 -0.295791 -0.055743 -0.116363 -0.000000 0.000000 0.000000 0.000000 0.000000 0.000000 0.000000 14.295030 -9.253594 0.485210 47.482764 7.367813 8.346254 2.977957 36.988137 0.014248 3.583135 5.555076 0.172669 0.086358 -0.073267 0.000000 0.000000 0.000000 0.000000 0.000000 0.000000 0.000000 
-8.213425 16.903963 -2.596172 15.429896 82.606455 17.196947 -3.550601 -1.319042 -1.335138 -1.196882 -1.139597 -2.644742 -5.373852 -1.186325 2.528222 10.992807 -13.731848 -9.897714 -2.172141 -0.142861 -0.566407 0.000000 0.000000 0.000000 -3.459959 21.850769 0.630206 -70.274772 21.313702 11.343079 -3.747890 -29.100296 -0.019615 -7.658648 3.984925 -0.272228 -0.064564 -0.111870 -0.000000 0.000000 0.000000 0.000000 0.000000 0.000000 0.000000 14.463383 -9.350779 0.418526 48.909547 6.413126 7.717273 3.076754 36.002701 0.014120 3.416605 5.457421 0.161279 0.090909 -0.069526 0.000000 0.000000 0.000000 0.000000 0.000000 0.000000 0.000000 
-8.034966 16.908989 -2.591515 14.408029 82.289206 16.119528 -3.297552 -1.397575 -1.240179 -1.158469 -1.233367 -2.632744 -5.441243 -1.274872 2.522072 10.997339 -13.794262 -9.855397 -2.230422 -0.148059 -0.555018 0.000000 0.000000 0.000000 -3.332113 21.481271 0.621909 -69.229575 19.985869 10.665849 -3.792925 -28.896473 -0.018592 -7.221469 3.910558 -0.251165 -0.073732 -0.107120 -0.000000 0.000000 0.000000 0.000000 0.000000 0.000000 0.000000 14.618951 -9.468237 0.346725 50.400168 5.435424 6.919335 3.175181 34.922831 0.013941 3.224099 5.347902 0.148685 0.095279 -0.066053 0.000000 0.000000 0.000000 0.000000 0.000000 0.000000 0.000000 
-7.857994 16.914974 -2.584486 13.566406 82.026785 15.203713 -3.048380 -1.488972 -1.128764 -1.120461 -1.339335 -2.615552 -5.507861 -1.374981 2.521615 10.999764 -13.885227 -9.815507 -2.286466 -0.152986 -0.544474 0.000000 0.000000 0.000000 -3.167287 21.094524 0.618817 -68.167994 18.664268 9.863932 -3.843579 -28.709962 -0.017642 -6.797238 3.857511 -0.232400 -0.083055 -0.102053 -0.000000 0.000000 0.000000 0.000000 0.000000 0.000000 0.000000 14.775594 -9.634229 0.271583 51.928987 4.462838 5.992672 3.270811 33.773465 0.013728 3.007333 5.239475 0.135387 0.099390 -0.062893 -0.000000 0.000000 0.000000 0.000000 0.000000 0.000000 0.000000 
-7.682300 16.921443 -2.574801 12.894308 81.830383 14.442782 -2.806515 -1.595016 -1.006226 -1.083727 -1.459334 -2.595942 -5.574980 -1.488754 2.519591 10.998531 -13.976917 -9.771830 -2.342347 -0.157917 -0.532977 0.000000 0.000000 0.000000 -2.962431 20.672355 0.623375 -67.087681 17.387846 8.943142 -3.897618 -28.581394 -0.016770 -6.397286 3.819715 -0.215735 -0.092364 -0.096638 -0.000000 0.000000 0.000000 0.000000 0.000000 0.000000 0.000000 14.931868 -9.817365 0.194933 53.493214 3.436825 4.897479 3.362226 32.614495 0.013489 2.805519 5.130902 0.123283 0.102851 -0.060080 -0.000000 0.000000 0.000000 0.000000 0.000000 0.000000 0.000000 
-7.507662 16.928021 -2.562406 12.355326 81.703985 13.807845 -2.573039 -1.717959 -0.875398 -1.047952 -1.595610 -2.570794 -5.640686 -1.618192 2.529316 11.006180 -14.134483 -9.744827 -2.394843 -0.162302 -0.526004 0.000000 0.000000 0.000000 -2.725545 20.252121 0.630764 -65.979000 16.128189 7.957354 -3.951590 -28.524831 -0.015958 -6.026421 3.786129 -0.200671 -0.101463 -0.090815 -0.000000 0.000000 0.000000 0.000000 0.000000 0.000000 0.000000 15.113365 -10.087390 0.118431 55.042066 2.455845 3.774794 3.447142 31.445632 0.013262 2.599841 5.046637 0.111878 0.105852 -0.057558 -0.000000 0.000000 0.000000 0.000000 0.000000 0.000000 0.000000 
